<?xml version="1.0" standalone="no"?>
<!DOCTYPE svg PUBLIC "-//W3C//DTD SVG 20010904//EN"
 "http://www.w3.org/TR/2001/REC-SVG-20010904/DTD/svg10.dtd">
<svg version="1.0" xmlns="http://www.w3.org/2000/svg"
 width="512.000000pt" height="512.000000pt" viewBox="0 0 512.000000 512.000000"
 preserveAspectRatio="xMidYMid meet">
<metadata>
Created by potrace 1.11, written by Peter Selinger 2001-2013
</metadata>
<g transform="translate(0.000000,512.000000) scale(0.100000,-0.100000)"
fill="#000000" stroke="none">
<path d="M2327 4134 c-712 -108 -1264 -679 -1350 -1396 -33 -270 9 -540 123
-808 181 -420 566 -764 1000 -891 106 -32 139 -38 280 -58 67 -9 342 -7 395 3
17 4 66 13 110 22 112 21 270 76 378 130 175 86 273 158 412 298 259 261 414
574 461 931 9 65 8 326 0 390 -15 106 -18 123 -41 210 -82 312 -268 607 -519
819 -123 104 -234 169 -441 261 -55 24 -217 70 -286 80 -19 2 -61 9 -94 14
-87 13 -326 11 -428 -5z m304 -173 c35 -1 85 -54 183 -191 100 -141 216 -333
216 -358 0 -9 -938 -8 -947 1 -3 4 -1 13 5 20 7 7 33 54 58 103 52 99 78 139
175 269 126 168 117 164 310 156z m478 -109 c87 -37 226 -119 311 -185 71 -55
250 -235 250 -252 0 -13 -417 -12 -429 1 -5 5 -37 63 -70 129 -33 66 -93 170
-133 230 -40 61 -76 115 -80 122 -10 14 55 -5 151 -45z m-965 36 c-5 -7 -29
-44 -55 -83 -70 -106 -209 -363 -209 -389 0 -8 -63 -11 -215 -10 -118 0 -217
3 -220 6 -3 3 46 57 108 120 149 150 316 261 502 334 93 37 99 38 89 22z
m-356 -677 c15 -1 11 -34 -13 -106 -13 -38 -28 -115 -39 -195 -2 -19 -7 -55
-11 -80 -3 -25 -8 -72 -10 -105 -2 -33 -4 -62 -4 -65 -1 -3 -124 -5 -273 -5
l-273 0 1 30 c2 100 29 219 84 374 40 112 64 149 98 153 22 2 398 2 440 -1z
m1325 -2 c5 -8 67 -266 77 -324 6 -33 14 -98 17 -145 l5 -85 -653 0 -654 0 -1
60 c-1 46 33 280 49 340 2 6 13 44 26 85 l22 75 555 -1 c305 -1 556 -3 557 -5z
m691 0 c20 -24 102 -239 112 -296 3 -15 9 -45 15 -65 5 -20 12 -56 15 -80 3
-24 7 -53 9 -66 8 -48 10 -47 -274 -47 -148 0 -272 2 -274 5 -3 3 -10 58 -16
122 -10 104 -43 287 -70 386 -6 20 -7 38 -2 42 10 6 480 5 485 -1z m-2093
-747 c0 -4 2 -34 4 -67 4 -82 32 -250 61 -370 13 -55 24 -103 24 -107 0 -5
-107 -8 -238 -8 -235 0 -237 0 -251 23 -51 79 -120 288 -136 412 -2 11 -6 43
-10 72 l-6 52 275 0 c152 0 276 -3 277 -7z m1498 -60 c-1 -37 -6 -83 -10 -102
-4 -19 -10 -57 -13 -85 -5 -39 -48 -215 -72 -292 -3 -10 -123 -13 -558 -13
l-555 0 -15 53 c-42 149 -75 318 -83 424 l-6 82 657 0 657 1 -2 -68z m751 50
c0 -99 -73 -367 -132 -484 l-28 -58 -245 0 c-166 0 -245 3 -245 11 0 5 11 49
25 97 27 98 61 323 64 424 l1 28 280 0 c258 -1 280 -2 280 -18z m-2070 -772
c22 -62 151 -293 211 -377 32 -46 55 -83 51 -83 -31 0 -342 147 -342 162 0 4
-5 8 -11 8 -11 0 -112 74 -162 120 -84 74 -187 185 -187 200 0 3 96 6 214 6
l214 0 12 -36z m1138 31 c4 -1 -66 -137 -88 -171 -9 -14 -42 -63 -72 -110 -65
-100 -198 -264 -218 -268 -17 -4 -159 -3 -183 1 -23 4 -64 49 -148 162 -93
125 -229 353 -229 383 0 6 926 9 938 3z m642 -2 c0 -10 -78 -98 -135 -152 -70
-67 -218 -179 -290 -219 -86 -48 -295 -134 -295 -122 0 3 13 23 29 43 47 60
162 251 199 331 19 41 43 86 53 101 l18 25 210 0 c116 0 211 -3 211 -7z"/>
</g>
</svg>
